<svg width="256" height="256" viewBox="0 0 256 256" fill="none" xmlns="http://www.w3.org/2000/svg">
<rect width="256" height="256" rx="40" fill="white"/>
<path d="M47.9722 78.2905L125.195 33.7134L128.167 32L131.139 33.7134L208.336 78.2905L211.309 80.0081V83.4391V172.593V176.024L208.336 177.742L131.137 222.319L128.167 224.032L125.195 222.319L47.9722 177.742L45 176.024V172.593V83.4391V80.0081L47.9722 78.2905ZM50.9445 172.593L128.167 217.173L205.366 172.593V83.4391L128.167 38.8598L50.9466 83.4391L50.9445 172.593Z" fill="url(#paint0_linear_51_7)"/>
<path d="M136.879 54.8583L187.191 83.9086C188.056 83.629 188.967 83.4391 189.925 83.4391C194.847 83.4391 198.841 87.4334 198.841 92.3537C198.841 94.9824 197.681 97.3231 195.867 98.9532V156.753C197.681 158.385 198.841 160.724 198.841 163.352C198.841 168.275 194.847 172.267 189.925 172.267C189.099 172.267 188.316 172.118 187.556 171.908L136.879 201.174C136.032 205.215 132.452 208.256 128.154 208.256C123.853 208.256 120.268 205.209 119.425 201.157L69.1236 172.124C68.2595 172.403 67.3484 172.593 66.3904 172.593C61.4679 172.593 57.4758 168.599 57.4758 163.679C57.4758 161.05 58.6365 158.709 60.448 157.079V98.9532C58.6365 97.321 57.4758 94.9824 57.4758 92.3537C57.4758 87.4313 61.4679 83.4391 66.3904 83.4391C67.3484 83.4391 68.2595 83.629 69.1236 83.9086L119.425 54.8754C120.268 50.8257 123.853 47.7766 128.154 47.7766C132.452 47.7766 136.03 50.8171 136.879 54.8583ZM74.0802 168.119L120.469 194.895C120.742 194.425 121.053 193.99 121.408 193.578L99.0294 154.809C98.4597 154.924 97.8751 154.988 97.2713 154.988C94.9904 154.988 92.9292 154.105 91.3503 152.695L75.1449 162.051C75.243 162.58 75.3071 163.118 75.3071 163.677C75.3049 165.305 74.8355 166.807 74.0802 168.119ZM181.142 162.036L164.792 152.599C163.247 153.894 161.28 154.707 159.104 154.707C158.54 154.707 157.994 154.643 157.456 154.538L134.918 193.589C135.266 194.001 135.573 194.436 135.846 194.905L182.374 168.044C181.52 166.674 181.008 165.078 181.008 163.354C181.008 162.9 181.081 162.471 181.142 162.036ZM131.137 65.0553L131.131 83.9832C133.651 84.8837 135.629 86.8637 136.523 89.3815H181.554C181.74 88.8651 181.966 88.3765 182.233 87.9135L135.844 61.1271C134.794 62.9429 133.141 64.3426 131.137 65.0553ZM77.477 95.3259L122.398 121.259C123.217 120.561 124.149 120.011 125.184 119.646L125.191 100.724C122.664 99.8302 120.686 97.8458 119.786 95.3259H77.477ZM104.105 151.732L125.195 188.255L125.182 136.387C124.149 136.022 123.215 135.469 122.396 134.774L105.992 144.241C106.113 144.832 106.184 145.449 106.184 146.074C106.186 148.233 105.384 150.19 104.105 151.732ZM150.345 144.256L133.913 134.772C133.094 135.469 132.159 136.013 131.124 136.385L131.137 188.253L152.335 151.53C151.019 149.974 150.187 147.99 150.187 145.79C150.187 145.267 150.257 144.757 150.345 144.256ZM136.525 95.3259C135.631 97.8458 133.651 99.8238 131.133 100.724L131.127 119.646C132.159 120.017 133.096 120.563 133.915 121.259L178.838 95.3259H136.525ZM136.909 126.39C137.007 126.92 137.071 127.457 137.071 128.016C137.071 128.575 137.007 129.113 136.909 129.642L153.276 139.092C154.845 137.729 156.865 136.875 159.104 136.875C159.65 136.875 160.183 136.939 160.706 137.038L181.812 100.47L136.909 126.39ZM95.7777 137.308C96.2663 137.227 96.7592 137.157 97.2691 137.157C99.3986 137.157 101.332 137.934 102.864 139.188L119.402 129.64C119.302 129.111 119.24 128.573 119.24 128.014C119.24 127.455 119.302 126.917 119.402 126.388L74.5048 100.466L95.7777 137.308ZM74.7608 89.3836H119.784C120.684 86.8573 122.664 84.8794 125.189 83.9854L125.195 65.0638C123.187 64.3554 121.525 62.9578 120.469 61.1399L74.0802 87.9156C74.3469 88.3829 74.5752 88.8651 74.7608 89.3836ZM189.925 101.27C189.368 101.27 188.826 101.206 188.299 101.108L165.842 140.014C167.184 141.574 168.02 143.571 168.02 145.79C168.02 146.377 167.956 146.951 167.845 147.503L183.935 156.791C185.521 155.347 187.612 154.44 189.927 154.44L189.925 101.27ZM66.3904 154.762C68.5966 154.762 70.5937 155.592 72.1492 156.921L88.4997 147.484C88.425 147.019 88.3546 146.556 88.3546 146.074C88.3546 143.823 89.2187 141.785 90.6014 140.217L68.0162 101.106C67.4892 101.204 66.9494 101.268 66.3904 101.268V154.762Z" fill="url(#paint1_linear_51_7)"/>
<defs>
<linearGradient id="paint0_linear_51_7" x1="26.25" y1="27.5" x2="223" y2="231.25" gradientUnits="userSpaceOnUse">
<stop stop-color="#FB4982"/>
<stop offset="1" stop-color="#5155FC"/>
</linearGradient>
<linearGradient id="paint1_linear_51_7" x1="41.5379" y1="44.016" x2="205.838" y2="217.08" gradientUnits="userSpaceOnUse">
<stop stop-color="#FB4982"/>
<stop offset="1" stop-color="#5155FC"/>
</linearGradient>
</defs>
</svg>