<svg width="1000" height="1000" viewBox="0 0 1000 1000" fill="none" xmlns="http://www.w3.org/2000/svg">
<path d="M83.0035 241.056L485.137 8.92222L500.615 0L516.092 8.92222L918.092 241.056L933.57 250V267.867V732.133V750L918.092 758.944L516.081 991.078L500.615 1000L485.137 991.078L83.0035 758.944L67.5257 750V732.133V267.867V250L83.0035 241.056ZM98.4813 732.133L500.615 964.278L902.626 732.133V267.867L500.615 35.7222L98.4924 267.867L98.4813 732.133Z" fill="url(#paint0_linear_2028_2)"/>
<path d="M545.982 119.034L807.981 270.312C812.481 268.856 817.226 267.867 822.215 267.867C847.848 267.867 868.648 288.667 868.648 314.289C868.648 327.978 862.604 340.167 853.159 348.656V649.645C862.604 658.145 868.648 670.323 868.648 684.012C868.648 709.645 847.848 730.434 822.215 730.434C817.915 730.434 813.837 729.656 809.881 728.567L545.982 880.967C541.57 902.012 522.926 917.845 500.548 917.845C478.148 917.845 459.482 901.978 455.093 880.878L193.148 729.689C188.648 731.145 183.904 732.134 178.915 732.134C153.282 732.134 132.493 711.334 132.493 685.712C132.493 672.023 138.537 659.834 147.971 651.345V348.656C138.537 340.156 132.493 327.978 132.493 314.289C132.493 288.656 153.282 267.867 178.915 267.867C183.904 267.867 188.648 268.856 193.148 270.312L455.093 119.123C459.482 98.0338 478.148 82.156 500.548 82.156C522.926 82.156 541.559 97.9893 545.982 119.034ZM218.959 708.834L460.526 848.267C461.948 845.823 463.57 843.556 465.415 841.412L348.882 639.523C345.915 640.123 342.871 640.456 339.726 640.456C327.848 640.456 317.115 635.856 308.893 628.512L224.504 677.234C225.015 679.989 225.348 682.789 225.348 685.7C225.337 694.178 222.893 702 218.959 708.834ZM776.481 677.156L691.337 628.012C683.293 634.756 673.048 638.989 661.715 638.989C658.782 638.989 655.937 638.656 653.137 638.112L535.77 841.467C537.582 843.612 539.182 845.878 540.604 848.323L782.893 708.445C778.448 701.312 775.781 693 775.781 684.023C775.781 681.656 776.159 679.423 776.481 677.156ZM516.082 172.134L516.048 270.7C529.17 275.389 539.47 285.7 544.126 298.812H778.626C779.593 296.123 780.77 293.578 782.159 291.167L540.593 151.678C535.126 161.134 526.515 168.423 516.082 172.134ZM236.648 329.767L470.57 464.812C474.837 461.178 479.693 458.312 485.082 456.412L485.115 357.878C471.959 353.223 461.659 342.889 456.97 329.767H236.648ZM375.315 623.5L485.137 813.689L485.07 543.589C479.693 541.689 474.826 538.812 470.559 535.189L385.137 584.489C385.77 587.567 386.137 590.778 386.137 594.034C386.148 605.278 381.97 615.467 375.315 623.5ZM616.104 584.567L530.537 535.178C526.27 538.812 521.404 541.645 516.015 543.578L516.082 813.678L626.47 622.445C619.615 614.345 615.282 604.012 615.282 592.556C615.282 589.834 615.648 587.178 616.104 584.567ZM544.137 329.767C539.482 342.889 529.17 353.189 516.059 357.878L516.026 456.412C521.404 458.345 526.282 461.189 530.548 464.812L764.481 329.767H544.137ZM546.137 491.534C546.648 494.289 546.982 497.089 546.982 500C546.982 502.912 546.648 505.712 546.137 508.467L631.37 557.678C639.537 550.578 650.059 546.134 661.715 546.134C664.559 546.134 667.337 546.467 670.059 546.978L779.97 356.556L546.137 491.534ZM331.948 548.389C334.493 547.967 337.059 547.6 339.715 547.6C350.804 547.6 360.87 551.645 368.848 558.178L454.97 508.456C454.448 505.7 454.126 502.9 454.126 499.989C454.126 497.078 454.448 494.278 454.97 491.523L221.171 356.534L331.948 548.389ZM222.504 298.823H456.959C461.648 285.667 471.959 275.367 485.104 270.712L485.137 172.178C474.682 168.489 466.026 161.212 460.526 151.745L218.959 291.178C220.348 293.612 221.537 296.123 222.504 298.823ZM822.215 360.723C819.315 360.723 816.493 360.389 813.748 359.878L696.804 562.478C703.793 570.6 708.148 581 708.148 592.556C708.148 595.612 707.815 598.6 707.237 601.478L791.026 649.845C799.281 642.323 810.17 637.6 822.226 637.6L822.215 360.723ZM178.915 639.278C190.404 639.278 200.804 643.6 208.904 650.523L294.048 601.378C293.659 598.956 293.293 596.545 293.293 594.034C293.293 582.312 297.793 571.7 304.993 563.534L187.382 359.867C184.637 360.378 181.826 360.712 178.915 360.712V639.278Z" fill="url(#paint1_linear_2028_2)"/>
<defs>
<linearGradient id="paint0_linear_2028_2" x1="-30.1142" y1="-23.4335" x2="994.453" y2="1037.59" gradientUnits="userSpaceOnUse">
<stop stop-color="#FB4982"/>
<stop offset="1" stop-color="#5155FC"/>
</linearGradient>
<linearGradient id="paint1_linear_2028_2" x1="49.4969" y1="62.5729" x2="905.084" y2="963.795" gradientUnits="userSpaceOnUse">
<stop stop-color="#FB4982"/>
<stop offset="1" stop-color="#5155FC"/>
</linearGradient>
</defs>
</svg>
