<svg width="1801" height="498" viewBox="0 0 1801 498" fill="none" xmlns="http://www.w3.org/2000/svg">
<path d="M1725.7 348.596L1699.75 291.772H1583.12L1557.46 348.596H1544.34L1634.74 149H1647.57L1738.81 348.596H1725.7ZM1588.26 279.779H1694.33L1641.01 162.706L1588.26 279.779Z" fill="white"/>
<path d="M1788.96 149H1801V349.629H1788.96V149Z" fill="white"/>
<path d="M546 150.695H691.031V162.28H624.441V348.201H612.59V162.28H546V150.695ZM734.871 150.695H862.126V162.28H746.722V241.113H849.429V252.98H746.722V336.616H865.794V348.201H734.871V150.695ZM1003.03 165.106C993.813 162.657 984.784 161.432 975.943 161.432C960.33 161.432 947.821 164.54 938.415 170.757C929.01 176.973 924.307 185.261 924.307 195.621C924.307 204.663 926.706 212.01 931.502 217.661C936.299 223.312 942.224 227.691 949.279 230.8C956.333 233.908 965.879 237.345 977.918 241.113C991.273 245.069 1002.09 248.93 1010.37 252.697C1018.64 256.465 1025.6 262.022 1031.25 269.368C1036.89 276.715 1039.71 286.227 1039.71 297.906C1039.71 308.078 1036.89 317.073 1031.25 324.89C1025.6 332.708 1017.61 338.735 1007.26 342.974C996.917 347.212 984.878 349.331 971.146 349.331C958.167 349.331 945.375 346.694 932.772 341.42C920.169 336.145 909.541 329.176 900.888 320.511L907.095 310.056C914.996 318.533 924.778 325.173 936.44 329.976C948.103 334.78 959.765 337.181 971.428 337.181C988.546 337.181 1002.09 333.649 1012.06 326.585C1022.03 319.522 1027.01 310.056 1027.01 298.189C1027.01 288.959 1024.57 281.471 1019.68 275.726C1014.79 269.98 1008.72 265.507 1001.48 262.304C994.236 259.102 984.596 255.711 972.557 252.132C959.013 247.988 948.244 244.08 940.249 240.406C932.255 236.733 925.483 231.318 919.934 224.159C914.385 217.001 911.61 207.677 911.61 196.187C911.61 186.768 914.291 178.48 919.652 171.322C925.013 164.164 932.631 158.654 942.507 154.792C952.382 150.931 963.716 149 976.507 149C986.477 149 996.493 150.46 1006.56 153.38C1016.62 156.299 1025.41 160.208 1032.94 165.106L1027.58 175.843C1020.43 171.133 1012.25 167.554 1003.03 165.106ZM1178.64 165.106C1169.42 162.657 1160.39 161.432 1151.55 161.432C1135.94 161.432 1123.43 164.54 1114.03 170.757C1104.62 176.973 1099.92 185.261 1099.92 195.621C1099.92 204.663 1102.32 212.01 1107.11 217.661C1111.91 223.312 1117.83 227.691 1124.89 230.8C1131.94 233.908 1141.49 237.345 1153.53 241.113C1166.88 245.069 1177.7 248.93 1185.98 252.697C1194.25 256.465 1201.21 262.022 1206.86 269.368C1212.5 276.715 1215.32 286.227 1215.32 297.906C1215.32 308.078 1212.5 317.073 1206.86 324.89C1201.21 332.708 1193.22 338.735 1182.87 342.974C1172.53 347.212 1160.49 349.331 1146.76 349.331C1133.78 349.331 1120.99 346.694 1108.38 341.42C1095.78 336.145 1085.15 329.176 1076.5 320.511L1082.71 310.056C1090.61 318.533 1100.39 325.173 1112.05 329.976C1123.71 334.78 1135.38 337.181 1147.04 337.181C1164.16 337.181 1177.7 333.649 1187.67 326.585C1197.64 319.522 1202.62 310.056 1202.62 298.189C1202.62 288.959 1200.18 281.471 1195.29 275.726C1190.4 269.98 1184.33 265.507 1177.09 262.304C1169.85 259.102 1160.21 255.711 1148.17 252.132C1134.62 247.988 1123.85 244.08 1115.86 240.406C1107.86 236.733 1101.09 231.318 1095.54 224.159C1089.99 217.001 1087.22 207.677 1087.22 196.187C1087.22 186.768 1089.9 178.48 1095.26 171.322C1100.62 164.164 1108.24 158.654 1118.12 154.792C1127.99 150.931 1139.33 149 1152.12 149C1162.09 149 1172.1 150.46 1182.17 153.38C1192.23 156.299 1201.02 160.208 1208.55 165.106L1203.19 175.843C1196.04 171.133 1187.86 167.554 1178.64 165.106ZM1423.1 348.201L1397.42 291.973H1282.02L1256.62 348.201H1243.64L1333.09 150.695H1345.79L1436.08 348.201H1423.1ZM1287.1 280.105H1392.06L1339.3 164.258L1287.1 280.105Z" fill="white"/>
<path d="M7.70273 119.965L207.83 4.44028L215.533 0L223.236 4.44028L423.297 119.965L431 124.416V133.308V364.357V373.249L423.297 377.7L223.23 493.225L215.533 497.665L207.83 493.225L7.70273 377.7L0 373.249V364.357V133.308V124.416L7.70273 119.965ZM15.4055 364.357L215.533 479.887L415.6 364.357V133.308L215.533 17.7777L15.411 133.308L15.4055 364.357Z" fill="url(#paint0_linear_2194_22)"/>
<path d="M238.111 59.239L368.499 134.525C370.738 133.8 373.099 133.308 375.582 133.308C388.339 133.308 398.69 143.66 398.69 156.411C398.69 163.223 395.682 169.289 390.982 173.514V323.306C395.682 327.536 398.69 333.596 398.69 340.409C398.69 353.165 388.339 363.511 375.582 363.511C373.442 363.511 371.413 363.124 369.444 362.582L238.111 438.427C235.915 448.9 226.637 456.779 215.5 456.779C204.352 456.779 195.063 448.883 192.878 438.382L62.5178 363.141C60.2783 363.865 57.9172 364.357 55.4344 364.357C42.6776 364.357 32.3317 354.006 32.3317 341.255C32.3317 334.442 35.3398 328.376 40.0344 324.152V173.514C35.3398 169.284 32.3317 163.223 32.3317 156.411C32.3317 143.654 42.6776 133.308 55.4344 133.308C57.9172 133.308 60.2783 133.8 62.5178 134.525L192.878 59.2832C195.063 48.788 204.352 40.8862 215.5 40.8862C226.637 40.8862 235.91 48.7659 238.111 59.239ZM75.3631 352.762L195.582 422.153C196.29 420.936 197.097 419.808 198.015 418.741L140.021 318.268C138.544 318.567 137.029 318.733 135.464 318.733C129.553 318.733 124.212 316.443 120.12 312.788L78.1223 337.036C78.3767 338.407 78.5426 339.8 78.5426 341.249C78.5371 345.468 77.3206 349.361 75.3631 352.762ZM352.822 336.997L310.449 312.539C306.445 315.896 301.347 318.003 295.707 318.003C294.247 318.003 292.832 317.837 291.438 317.566L233.029 418.769C233.93 419.836 234.726 420.964 235.434 422.181L356.013 352.568C353.801 349.018 352.474 344.882 352.474 340.414C352.474 339.236 352.662 338.125 352.822 336.997ZM223.23 85.665L223.214 134.718C229.744 137.052 234.87 142.183 237.187 148.708H353.89C354.371 147.37 354.957 146.104 355.648 144.904L235.429 75.485C232.708 80.1907 228.423 83.8181 223.23 85.665ZM84.1662 164.114L200.581 231.32C202.704 229.512 205.121 228.086 207.803 227.14L207.819 178.104C201.272 175.787 196.146 170.644 193.813 164.114H84.1662ZM153.176 310.294L207.83 404.945L207.797 270.525C205.121 269.58 202.699 268.148 200.576 266.345L158.064 290.88C158.379 292.412 158.562 294.01 158.562 295.63C158.567 301.226 156.488 306.296 153.176 310.294ZM273.008 290.919L230.424 266.34C228.301 268.148 225.879 269.558 223.197 270.52L223.23 404.939L278.167 309.769C274.755 305.738 272.599 300.595 272.599 294.894C272.599 293.54 272.781 292.218 273.008 290.919ZM237.193 164.114C234.876 170.644 229.744 175.77 223.219 178.104L223.203 227.14C225.879 228.102 228.307 229.518 230.43 231.32L346.85 164.114H237.193ZM238.188 244.619C238.442 245.991 238.608 247.384 238.608 248.833C238.608 250.282 238.442 251.675 238.188 253.046L280.606 277.537C284.67 274.004 289.906 271.792 295.707 271.792C297.123 271.792 298.505 271.958 299.86 272.212L354.559 177.445L238.188 244.619ZM131.594 272.914C132.86 272.704 134.137 272.522 135.459 272.522C140.977 272.522 145.987 274.534 149.957 277.786L192.818 253.041C192.558 251.669 192.397 250.276 192.397 248.827C192.397 247.378 192.558 245.985 192.818 244.614L76.4635 177.434L131.594 272.914ZM77.127 148.714H193.807C196.141 142.167 201.272 137.041 207.814 134.724L207.83 85.6871C202.627 83.8513 198.319 80.2294 195.582 75.5182L75.3631 144.909C76.0543 146.12 76.6459 147.37 77.127 148.714ZM375.582 179.519C374.139 179.519 372.734 179.353 371.369 179.099L313.169 279.926C316.648 283.968 318.815 289.144 318.815 294.894C318.815 296.415 318.649 297.903 318.362 299.335L360.061 323.405C364.169 319.662 369.588 317.311 375.588 317.311L375.582 179.519ZM55.4344 318.146C61.152 318.146 66.3277 320.297 70.3588 323.742L112.732 299.285C112.539 298.079 112.356 296.88 112.356 295.63C112.356 289.796 114.596 284.515 118.179 280.451L59.6479 179.093C58.2821 179.348 56.8831 179.514 55.4344 179.514V318.146Z" fill="url(#paint1_linear_2194_22)"/>
<defs>
<linearGradient id="paint0_linear_2194_22" x1="-48.5919" y1="-11.662" x2="461.299" y2="516.37" gradientUnits="userSpaceOnUse">
<stop stop-color="#FB4982"/>
<stop offset="1" stop-color="#5155FC"/>
</linearGradient>
<linearGradient id="paint1_linear_2194_22" x1="-8.97248" y1="31.1404" x2="416.823" y2="479.647" gradientUnits="userSpaceOnUse">
<stop stop-color="#FB4982"/>
<stop offset="1" stop-color="#5155FC"/>
</linearGradient>
</defs>
</svg>
