<svg width="1000" height="1000" viewBox="0 0 1000 1000" fill="none" xmlns="http://www.w3.org/2000/svg">
<path d="M212.639 165.702L489.067 6.13316L499.707 0L510.346 6.13316L786.682 165.702L797.321 171.851V184.132V503.271V515.552L786.682 521.701L510.338 681.27L499.707 687.403L489.067 681.27L212.639 521.701L202 515.552V503.271V184.132V171.851L212.639 165.702ZM223.279 503.271L499.707 662.847L776.05 503.271V184.132L499.707 24.5556L223.287 184.132L223.279 503.271Z" fill="url(#paint0_linear_2031_2)"/>
<path d="M530.892 81.824L710.991 185.813C714.085 184.812 717.346 184.132 720.775 184.132C738.396 184.132 752.694 198.43 752.694 216.043C752.694 225.453 748.539 233.832 742.047 239.667V446.568C748.539 452.41 752.694 460.782 752.694 470.191C752.694 487.812 738.396 502.102 720.775 502.102C717.82 502.102 715.017 501.567 712.297 500.819L530.892 605.579C527.86 620.045 515.043 630.929 499.661 630.929C484.263 630.929 471.432 620.022 468.415 605.518L288.353 501.59C285.26 502.591 281.999 503.271 278.569 503.271C260.949 503.271 246.659 488.973 246.659 471.36C246.659 461.95 250.813 453.571 257.298 447.736V239.667C250.813 233.824 246.659 225.453 246.659 216.043C246.659 198.423 260.949 184.132 278.569 184.132C281.999 184.132 285.26 184.812 288.353 185.813L468.415 81.8851C471.432 67.3885 484.263 56.4741 499.661 56.4741C515.043 56.4741 527.852 67.358 530.892 81.824ZM306.096 487.254L472.149 583.101C473.127 581.421 474.242 579.863 475.51 578.389L395.405 439.61C393.366 440.022 391.273 440.251 389.111 440.251C380.946 440.251 373.568 437.089 367.916 432.04L309.907 465.532C310.259 467.426 310.488 469.351 310.488 471.352C310.48 477.18 308.8 482.557 306.096 487.254ZM689.338 465.479L630.81 431.697C625.28 436.333 618.238 439.243 610.447 439.243C608.431 439.243 606.476 439.014 604.551 438.64L523.873 578.427C525.118 579.901 526.218 581.459 527.195 583.139L693.745 486.987C690.69 482.083 688.857 476.37 688.857 470.199C688.857 468.572 689.117 467.037 689.338 465.479ZM510.339 118.325L510.316 186.08C519.336 189.303 526.416 196.391 529.616 205.404H690.812C691.477 203.555 692.286 201.806 693.241 200.149L527.188 104.264C523.43 110.764 517.51 115.774 510.339 118.325ZM318.255 226.683L479.054 319.513C481.987 317.015 485.325 315.045 489.029 313.738L489.052 246.006C480.009 242.806 472.929 235.703 469.705 226.683H318.255ZM413.575 428.596L489.067 559.332L489.021 373.665C485.325 372.359 481.979 370.38 479.046 367.891L420.327 401.779C420.762 403.895 421.014 406.102 421.014 408.34C421.022 416.07 418.15 423.074 413.575 428.596ZM579.094 401.833L520.275 367.883C517.342 370.38 513.997 372.328 510.293 373.657L510.339 559.325L586.22 427.87C581.508 422.302 578.529 415.199 578.529 407.325C578.529 405.453 578.781 403.628 579.094 401.833ZM529.624 226.683C526.424 235.703 519.336 242.783 510.323 246.006L510.3 313.738C513.997 315.067 517.35 317.023 520.283 319.513L681.089 226.683H529.624ZM530.999 337.882C531.35 339.776 531.579 341.7 531.579 343.702C531.579 345.703 531.35 347.627 530.999 349.522L589.588 383.349C595.202 378.469 602.435 375.414 610.447 375.414C612.403 375.414 614.312 375.643 616.183 375.994L691.737 245.097L530.999 337.882ZM383.765 376.964C385.514 376.674 387.278 376.422 389.104 376.422C396.726 376.422 403.646 379.202 409.13 383.693L468.331 349.514C467.972 347.62 467.75 345.695 467.75 343.694C467.75 341.693 467.972 339.768 468.331 337.874L307.616 245.082L383.765 376.964ZM308.532 205.411H469.698C472.921 196.368 480.009 189.288 489.044 186.088L489.067 118.356C481.88 115.82 475.93 110.817 472.149 104.31L306.096 200.157C307.051 201.829 307.868 203.555 308.532 205.411ZM720.775 247.962C718.782 247.962 716.842 247.732 714.955 247.381L634.567 386.649C639.372 392.232 642.366 399.381 642.366 407.325C642.366 409.425 642.137 411.479 641.739 413.458L699.336 446.705C705.011 441.534 712.496 438.288 720.783 438.288L720.775 247.962ZM278.569 439.442C286.467 439.442 293.616 442.413 299.184 447.171L357.712 413.389C357.445 411.724 357.193 410.067 357.193 408.34C357.193 400.282 360.286 392.988 365.235 387.375L284.389 247.374C282.503 247.725 280.57 247.954 278.569 247.954V439.442Z" fill="url(#paint1_linear_2031_2)"/>
<path d="M109 805.485H236.258V815.636H177.828V978.546H167.43V815.636H109V805.485ZM274.726 805.485H386.386V815.636H285.124V884.712H375.244V895.11H285.124V968.395H389.604V978.546H274.726V805.485ZM510.022 818.112C501.935 815.967 494.012 814.894 486.254 814.894C472.555 814.894 461.579 817.617 453.326 823.064C445.073 828.511 440.947 835.773 440.947 844.851C440.947 852.774 443.051 859.211 447.26 864.163C451.469 869.114 456.668 872.952 462.858 875.675C469.047 878.399 477.424 881.411 487.987 884.712C499.706 888.178 509.197 891.562 516.459 894.863C523.722 898.164 529.829 903.033 534.781 909.47C539.732 915.907 542.208 924.243 542.208 934.476C542.208 943.389 539.732 951.271 534.781 958.12C529.829 964.97 522.814 970.252 513.736 973.966C504.658 977.679 494.094 979.536 482.045 979.536C470.657 979.536 459.433 977.225 448.374 972.604C437.315 967.982 427.99 961.875 420.397 954.283L425.844 945.122C432.776 952.55 441.359 958.368 451.593 962.577C461.826 966.786 472.06 968.89 482.293 968.89C497.313 968.89 509.197 965.795 517.945 959.606C526.693 953.416 531.067 945.122 531.067 934.724C531.067 926.636 528.921 920.075 524.63 915.041C520.338 910.007 515.015 906.087 508.661 903.281C502.306 900.475 493.847 897.504 483.283 894.368C471.399 890.737 461.95 887.312 454.935 884.093C447.92 880.874 441.978 876.129 437.109 869.857C432.24 863.585 429.805 855.415 429.805 845.346C429.805 837.094 432.157 829.831 436.862 823.559C441.566 817.287 448.25 812.459 456.916 809.075C465.581 805.692 475.526 804 486.749 804C495.497 804 504.287 805.279 513.117 807.838C521.947 810.396 529.664 813.821 536.266 818.112L531.562 827.52C525.29 823.394 518.11 820.258 510.022 818.112ZM664.112 818.112C656.024 815.967 648.101 814.894 640.344 814.894C626.644 814.894 615.668 817.617 607.415 823.064C599.162 828.511 595.036 835.773 595.036 844.851C595.036 852.774 597.14 859.211 601.349 864.163C605.558 869.114 610.757 872.952 616.947 875.675C623.137 878.399 631.513 881.411 642.077 884.712C653.796 888.178 663.286 891.562 670.549 894.863C677.811 898.164 683.918 903.033 688.87 909.47C693.822 915.907 696.297 924.243 696.297 934.476C696.297 943.389 693.822 951.271 688.87 958.12C683.918 964.97 676.903 970.252 667.825 973.966C658.747 977.679 648.184 979.536 636.135 979.536C624.746 979.536 613.522 977.225 602.463 972.604C591.405 967.982 582.079 961.875 574.487 954.283L579.933 945.122C586.866 952.55 595.449 958.368 605.682 962.577C615.915 966.786 626.149 968.89 636.382 968.89C651.402 968.89 663.286 965.795 672.034 959.606C680.782 953.416 685.156 945.122 685.156 934.724C685.156 926.636 683.01 920.075 678.719 915.041C674.428 910.007 669.105 906.087 662.75 903.281C656.395 900.475 647.936 897.504 637.373 894.368C625.489 890.737 616.039 887.312 609.024 884.093C602.01 880.874 596.068 876.129 591.198 869.857C586.329 863.585 583.895 855.415 583.895 845.346C583.895 837.094 586.247 829.831 590.951 823.559C595.655 817.287 602.34 812.459 611.005 809.075C619.67 805.692 629.615 804 640.839 804C649.587 804 658.376 805.279 667.206 807.838C676.037 810.396 683.753 813.821 690.355 818.112L685.651 827.52C679.379 823.394 672.199 820.258 664.112 818.112ZM878.611 978.546L856.081 929.277H754.82L732.537 978.546H721.148L799.632 805.485H810.773L890 978.546H878.611ZM759.276 918.878H851.377L805.079 817.369L759.276 918.878Z" fill="#D54B9C"/>
<defs>
<linearGradient id="paint0_linear_2031_2" x1="134.882" y1="-16.1082" x2="839.172" y2="713.239" gradientUnits="userSpaceOnUse">
<stop stop-color="#FB4982"/>
<stop offset="1" stop-color="#5155FC"/>
</linearGradient>
<linearGradient id="paint1_linear_2031_2" x1="189.607" y1="43.0126" x2="777.74" y2="662.515" gradientUnits="userSpaceOnUse">
<stop stop-color="#FB4982"/>
<stop offset="1" stop-color="#5155FC"/>
</linearGradient>
</defs>
</svg>